<svg width="100" height="96" viewBox="0 0 100 96" fill="none" xmlns="http://www.w3.org/2000/svg">
<path fill-rule="evenodd" clip-rule="evenodd" d="M3.37782 51.2905L6.1402 48.5281L6.15233 48.5425L7.28554 47.5865C9.43483 45.7733 11.9111 44.5548 14.5 43.9318V90.0444C14.5 95.4202 14.6242 95.4411 20 95.4411H78.7012H78.7908C84.0817 95.4412 84.5 95.4413 84.5 90.0955V43.6075C86.1548 43.8129 87.7844 44.2749 89.3253 44.9936L95.6222 51.2905L99.5 47.4411L52.5 2.44108C51.7618 1.80831 51.246 1.28676 50.8541 0.890508C50.31 0.340321 50.0048 0.0316964 49.6747 0.00231339C49.253 -0.0352267 48.7907 0.383038 47.7378 1.33569L47.7378 1.33572C47.3944 1.64643 46.9881 2.01397 46.5 2.44109L0 47.9411L3.37782 51.2905ZM83.8614 39.5297L53.4266 9.09493L54.6195 17.7101C56.0701 28.1865 61.9404 37.4944 70.6731 43.323C74.5767 40.4856 79.261 39.2202 83.8614 39.5297ZM70.0702 47.6758C69.5386 47.3559 69.0156 47.0247 68.5016 46.6827L66.8252 45.9059C55.5708 40.6904 42.5695 40.807 31.4113 46.2219C31.0925 46.4897 30.7701 46.7541 30.4441 47.0149L30.2069 47.2048L30.1569 47.1423L29.8587 47.5012C27.0578 45.1743 23.716 43.8487 20.299 43.5228V90.0444H78.7012V43.9366C76.21 44.5387 73.8333 45.7413 71.7987 47.5438L70.7648 48.4598L70.0702 47.6758ZM29.644 42.4669C25.1467 39.7923 19.9022 38.8929 14.9034 39.7649L45.8996 8.76873C45.2632 21.7334 39.3976 33.8962 29.644 42.4669ZM60.2122 39.3715C55.1189 33.4737 51.7523 26.1665 50.6573 18.2587L49.7137 11.4437C48.7076 21.7998 44.6188 31.5773 38.044 39.5346C45.3031 37.6467 52.9243 37.5902 60.2122 39.3715ZM45.5 57.4411H37.5V72.4411H45.5V57.4411ZM37.5 54.4411H34.5V57.4411V72.4411V75.4411H37.5H45.5H48.5V72.4411V57.4411V54.4411H45.5H37.5ZM53.5 57.4411H61.5V72.4411H53.5V57.4411ZM50.5 54.4411H53.5H61.5H64.5V57.4411V72.4411V75.4411H61.5H53.5H50.5V72.4411V57.4411V54.4411Z" fill="black"/>
</svg>
