<svg width="57" height="77" viewBox="0 0 57 77" fill="none" xmlns="http://www.w3.org/2000/svg">
<path fill-rule="evenodd" clip-rule="evenodd" d="M28.2287 76.2671C9.40958 67.0009 0 57.7564 0 48.5336V13.8667C0 11.2057 0.924016 10.5873 3.48132 8.87572C4.2556 8.3575 5.17962 7.73906 6.27305 6.93337C6.78052 6.55945 17.4491 0 28.2287 0C37.6234 0 45.4796 3.46669 50.1844 6.93337C51.2778 7.73906 52.2018 8.35749 52.9761 8.87572C55.5334 10.5873 56.4575 11.2057 56.4575 13.8667C56.5193 14.6199 56.4889 30.637 56.4694 40.8899C56.4628 44.3857 56.4575 47.2114 56.4575 48.5336C56.4575 57.7781 47.0479 67.0226 28.2287 76.2671ZM50.1845 48.5333C50.1845 47.7348 50.1863 46.3971 50.1902 44.2162L50.2029 37.4448C50.2069 35.2542 50.2101 33.3743 50.2128 31.5804C50.2244 23.8423 50.2213 17.2007 50.2145 15.1466L49.7837 14.8511C48.7695 14.1556 47.4474 13.2492 46.7048 12.702C42.0744 9.29009 35.3179 6.93304 28.2288 6.93304C21.4479 6.93304 12.636 10.5775 9.75278 12.702C9.01018 13.2491 7.68825 14.1555 6.67401 14.851L6.67393 14.8511L6.27312 15.126V48.5333C6.27312 53.7626 13.2648 60.905 28.2317 68.647C43.1968 60.9223 50.1845 53.7827 50.1845 48.5333ZM38.5569 25.2822L25.0921 40.1644L17.9004 32.2156L13.4647 37.1183L25.0921 49.9697L42.9926 30.1849L38.5569 25.2822Z" fill="white"/>
</svg>
