<svg width="101" height="100" viewBox="0 0 101 100" fill="none" xmlns="http://www.w3.org/2000/svg">
<path fill-rule="evenodd" clip-rule="evenodd" d="M50.5 100C22.8858 100 0.5 77.6142 0.5 50C0.5 22.3858 22.8858 0 50.5 0C78.1142 0 100.5 22.3858 100.5 50C100.5 77.6142 78.1142 100 50.5 100ZM50.5 90.9091C73.0935 90.9091 91.4091 72.5935 91.4091 50C91.4091 27.4065 73.0935 9.0909 50.5 9.0909C27.9065 9.0909 9.59091 27.4065 9.59091 50C9.59091 72.5935 27.9065 90.9091 50.5 90.9091ZM55.0455 63.6364C55.0455 71.1675 61.1507 77.2727 68.6818 77.2727C76.213 77.2727 82.3182 71.1675 82.3182 63.6364C82.3182 56.1052 76.213 50 68.6818 50C61.1507 50 55.0455 56.1052 55.0455 63.6364ZM68.6818 68.1818C71.1922 68.1818 73.2273 66.1467 73.2273 63.6364C73.2273 61.126 71.1922 59.0909 68.6818 59.0909C66.1714 59.0909 64.1364 61.126 64.1364 63.6364C64.1364 66.1467 66.1714 68.1818 68.6818 68.1818ZM18.6818 36.3636C18.6818 43.8948 24.787 50 32.3182 50C39.8493 50 45.9545 43.8948 45.9545 36.3636C45.9545 28.8325 39.8493 22.7273 32.3182 22.7273C24.787 22.7273 18.6818 28.8325 18.6818 36.3636ZM32.3182 40.9091C34.8286 40.9091 36.8636 38.874 36.8636 36.3637C36.8636 33.8533 34.8286 31.8182 32.3182 31.8182C29.8078 31.8182 27.7727 33.8533 27.7727 36.3637C27.7727 38.874 29.8078 40.9091 32.3182 40.9091ZM41.9456 77.2727L69.2183 22.7273H59.0544L31.7816 77.2727H41.9456Z" fill="black"/>
</svg>
