<svg width="100" height="100" viewBox="0 0 100 100" fill="none" xmlns="http://www.w3.org/2000/svg">
<path fill-rule="evenodd" clip-rule="evenodd" d="M14.6447 85.3553C10.4437 81.1544 9.23848 74.7463 10.556 66.3383C3.67898 61.3245 0 55.9411 0 50C0 44.0589 3.67898 38.6755 10.556 33.6617C9.23848 25.2537 10.4437 18.8456 14.6447 14.6447C18.8456 10.4437 25.2537 9.23848 33.6617 10.556C38.6755 3.67898 44.0589 0 50 0C55.9411 0 61.3245 3.67898 66.3383 10.556C74.7463 9.23848 81.1544 10.4437 85.3553 14.6447C89.5563 18.8456 90.7615 25.2537 89.444 33.6617C96.321 38.6755 100 44.0589 100 50C100 55.9411 96.321 61.3245 89.444 66.3383C90.7615 74.7463 89.5563 81.1544 85.3553 85.3553C81.1544 89.5563 74.7463 90.7615 66.3383 89.444C61.3245 96.321 55.9411 100 50 100C44.0589 100 38.6755 96.321 33.6617 89.444C25.2537 90.7615 18.8456 89.5563 14.6447 85.3553ZM34.7845 79.9908C36.6296 79.5957 38.527 80.3816 39.5523 81.9657C43.5557 88.1513 47.1256 90.9091 50 90.9091C52.8744 90.9091 56.4443 88.1513 60.4477 81.9657C61.473 80.3816 63.3704 79.5957 65.2155 79.9908C72.4202 81.5338 76.8946 80.9596 78.9271 78.9271C80.9596 76.8946 81.5338 72.4202 79.9908 65.2155C79.5957 63.3704 80.3816 61.473 81.9657 60.4477C88.1513 56.4443 90.9091 52.8744 90.9091 50C90.9091 47.1256 88.1513 43.5557 81.9657 39.5523C80.3816 38.527 79.5957 36.6296 79.9908 34.7845C81.5338 27.5798 80.9596 23.1054 78.9271 21.0729C76.8946 19.0404 72.4202 18.4662 65.2155 20.0092C63.3704 20.4043 61.473 19.6184 60.4477 18.0343C56.4443 11.8487 52.8744 9.09091 50 9.09091C47.1256 9.09091 43.5557 11.8487 39.5523 18.0343C38.527 19.6184 36.6296 20.4043 34.7845 20.0092C27.5797 18.4662 23.1054 19.0404 21.0729 21.0729C19.0404 23.1054 18.4662 27.5798 20.0092 34.7845C20.4043 36.6296 19.6184 38.527 18.0343 39.5523C11.8487 43.5557 9.0909 47.1256 9.0909 50C9.0909 52.8744 11.8487 56.4443 18.0343 60.4477C19.6184 61.473 20.4043 63.3704 20.0092 65.2155C18.4662 72.4202 19.0404 76.8946 21.0729 78.9271C23.1054 80.9596 27.5797 81.5338 34.7845 79.9908ZM64.4678 33.1495L44.9546 52.6627L34.5324 42.2404L28.1041 48.6687L44.9546 65.5191L70.896 39.5778L64.4678 33.1495Z" fill="black"/>
</svg>