<svg width="101" height="100" viewBox="0 0 101 100" fill="none" xmlns="http://www.w3.org/2000/svg">
<path fill-rule="evenodd" clip-rule="evenodd" d="M80.7553 90.4452L90.8334 80.3666L87.2839 67.4713L88.8303 63.7779L100.5 57.1927V42.9404L88.8634 36.3277L87.343 32.6409L90.937 19.7389L80.8518 9.66786L67.9558 13.2164L64.271 11.6713L57.6855 0H43.4338L36.8214 11.6371L33.1357 13.1573L20.2363 9.55866L10.1668 19.6286L13.7158 32.5273L12.1708 36.2123L0.5 42.7981V57.0464L12.1261 63.6737L13.6478 67.3637L10.0544 80.2636L20.1277 90.3373L33.0258 86.7882L36.7111 88.3334L43.2967 100H57.5447L64.167 88.3731L67.856 86.8516L80.7553 90.4452ZM81.6484 57.3918L77.6857 66.8565L80.6645 77.6788L78.0809 80.2626L67.282 77.2542L57.8135 81.1594L52.2606 90.9087H48.6042L43.0973 81.1531L33.6434 77.189L22.8158 80.1684L20.2365 77.5891L23.2448 66.7896L19.3401 57.3214L9.59091 51.764V48.1069L19.3505 42.5997L23.3145 33.1449L20.3352 22.3168L22.9091 19.7428L33.708 22.7554L43.1798 18.8488L48.7241 9.09132H52.3769L57.8839 18.8513L67.3382 22.8156L78.168 19.8356L80.7537 22.4177L77.746 33.215L81.652 42.6863L91.4091 48.2309V51.8839L81.6484 57.3918ZM50.5 68.185C40.4585 68.185 32.3182 60.0443 32.3182 50.0023C32.3182 39.9603 40.4585 31.8197 50.5 31.8197C60.5415 31.8197 68.6818 39.9603 68.6818 50.0023C68.6818 60.0443 60.5415 68.185 50.5 68.185ZM59.5909 50.0023C59.5909 55.0233 55.5208 59.0936 50.5 59.0936C45.4792 59.0936 41.4091 55.0233 41.4091 50.0023C41.4091 44.9813 45.4792 40.911 50.5 40.911C55.5208 40.911 59.5909 44.9813 59.5909 50.0023Z" fill="black"/>
</svg>
